<?xml version="1.0" encoding="UTF-8" standalone="no"?>
<!-- Created with Inkscape (http://www.inkscape.org/) -->

<svg
   width="195.80299mm"
   height="195.927mm"
   viewBox="0 0 195.803 195.927"
   version="1.1"
   id="svg1"
   inkscape:version="1.3.1 (91b66b0783, 2023-11-16)"
   sodipodi:docname="musashi.svg"
   inkscape:export-filename="musashi.png"
   inkscape:export-xdpi="96"
   inkscape:export-ydpi="96"
   xmlns:inkscape="http://www.inkscape.org/namespaces/inkscape"
   xmlns:sodipodi="http://sodipodi.sourceforge.net/DTD/sodipodi-0.dtd"
   xmlns="http://www.w3.org/2000/svg"
   xmlns:svg="http://www.w3.org/2000/svg">
  <sodipodi:namedview
     id="namedview1"
     pagecolor="#ffffff"
     bordercolor="#000000"
     borderopacity="0.25"
     inkscape:showpageshadow="2"
     inkscape:pageopacity="0.0"
     inkscape:pagecheckerboard="0"
     inkscape:deskcolor="#d1d1d1"
     inkscape:document-units="mm"
     inkscape:zoom="0.54847349"
     inkscape:cx="133.09668"
     inkscape:cy="540.5913"
     inkscape:window-width="1920"
     inkscape:window-height="1017"
     inkscape:window-x="-8"
     inkscape:window-y="-8"
     inkscape:window-maximized="1"
     inkscape:current-layer="layer1" />
  <defs
     id="defs1">
    <inkscape:path-effect
       effect="copy_rotate"
       starting_point="178.91956,108.88247"
       origin="123.09868,108.88247"
       id="path-effect3"
       is_visible="true"
       lpeversion="1.2"
       lpesatellites=""
       method="normal"
       num_copies="3"
       starting_angle="0"
       rotation_angle="120"
       gap="-0.01"
       copies_to_360="true"
       mirror_copies="false"
       split_items="false"
       link_styles="false" />
    <inkscape:path-effect
       effect="copy_rotate"
       starting_point="222.38648,108.03127"
       origin="122.38648,108.03127"
       id="path-effect7"
       is_visible="true"
       lpeversion="1.2"
       lpesatellites=""
       method="normal"
       num_copies="3"
       starting_angle="0"
       rotation_angle="120"
       gap="-0.01"
       copies_to_360="true"
       mirror_copies="false"
       split_items="false"
       link_styles="false" />
  </defs>
  <!-- Create a rotation animation -->
  <animateTransform
    attributeName="transform"
    attributeType="XML"
    type="rotate"
    from="0 0 0"
    to="360 0 0"
    dur="16s"
    repeatCount="indefinite"
  />

  <g
     inkscape:label="Layer 1"
     inkscape:groupmode="layer"
     id="layer1"
     transform="translate(-28.985136,-15.600469)">
    <path
       style="fill:#000000;fill-opacity:1;stroke:none;stroke-width:1.76389"
       d="m 95.410186,21.936142 c -1.126079,0.03568 -2.309276,0.142253 -3.477307,0.229961 -37.018894,12.829165 -61.839252,47.362007 -61.937305,86.174067 0.0659,3.05654 0.28649,6.1079 0.660941,9.1426 1.726241,11.97956 6.638712,29.57178 17.524512,44.97658 0.81172,1.12519 1.649093,2.23203 2.511475,3.31969 0.877513,1.12067 1.76763,2.23184 2.715079,3.31815 2.606996,2.93275 5.400995,5.6974 8.364865,8.27701 0.172382,0.14472 0.351414,0.28442 0.525549,0.42788 0.469607,0.35502 4.790134,3.24635 5.266529,3.5924 C 48.764868,169.06557 26.713633,95.817946 76.588595,72.615736 80.028455,86.46419 101.89424,97.57716 115.39966,92.971083 155.41144,79.324914 150.36431,20.195159 95.410186,21.936142 Z M 61.64519,176.33457 c 0.593939,0.95738 1.277832,1.92877 1.937805,2.89646 29.61983,25.64472 71.936325,29.87336 105.597585,10.55224 2.61409,-1.58534 5.14635,-3.30205 7.58725,-5.14369 9.51149,-7.48475 22.29056,-20.53518 30.18861,-37.66496 0.56858,-1.26556 1.10845,-2.54417 1.6192,-3.83485 0.53177,-1.32028 1.04901,-2.64673 1.51606,-4.0104 1.23634,-3.7241 2.23359,-7.5261 2.98567,-11.38269 0.0391,-0.22165 0.0706,-0.44654 0.10778,-0.66908 0.0727,-0.5842 0.41635,-5.77155 0.47784,-6.35715 -1.27732,22.44544 -53.686,78.16618 -98.71719,46.5743 10.27318,-9.90323 8.96441,-34.39604 -1.77728,-43.78904 C 81.344697,95.677577 32.660392,129.6134 61.64519,176.33457 Z M 212.24065,128.3767 c 0.53214,-0.99305 1.03144,-2.07102 1.5395,-3.12641 7.39907,-38.47389 -10.09707,-77.235371 -43.66028,-96.726318 -2.67999,-1.471199 -5.43284,-2.805842 -8.24819,-3.998908 -11.23772,-4.494811 -28.92927,-9.036597 -47.71312,-7.311617 -1.3803,0.140375 -2.75754,0.312141 -4.13067,0.515156 -1.40929,0.199613 -2.81665,0.414892 -4.23114,0.692252 -3.84334,0.79135 -7.634593,1.828699 -11.350535,3.105681 -0.211523,0.07693 -0.422022,0.162123 -0.63333,0.241198 -0.54226,0.229182 -5.206488,2.525203 -5.744374,2.764748 20.076979,-10.116524 94.536899,7.410358 89.693119,62.204447 -13.71304,-3.945221 -34.27005,9.43462 -37.03378,23.433691 -8.18796,41.47431 45.54347,66.66824 71.5128,18.20608 z"
       transform="translate(4.1590299,4.2326986)"
       id="path1"
       inkscape:path-effect="#path-effect3"
       inkscape:original-d="m 95.410186,21.936142 c -1.126079,0.03568 -2.309276,0.142253 -3.477307,0.229961 -37.018894,12.829165 -61.839252,47.362007 -61.937305,86.174067 0.0659,3.05654 0.28649,6.1079 0.660941,9.1426 1.726241,11.97956 6.638712,29.57178 17.524512,44.97658 0.81172,1.12519 1.649093,2.23203 2.511475,3.31969 0.877513,1.12067 1.76763,2.23184 2.715079,3.31815 2.606996,2.93275 5.400995,5.6974 8.364865,8.27701 0.172382,0.14472 0.351414,0.28442 0.525549,0.42788 0.469607,0.35502 4.790134,3.24635 5.266529,3.5924 C 48.764868,169.06557 26.713633,95.817946 76.588595,72.615736 80.028455,86.46419 101.89424,97.57716 115.39966,92.971083 155.41144,79.324914 150.36431,20.195159 95.410186,21.936142 Z" />
  </g>
</svg>
