<?xml version="1.0" encoding="UTF-8" standalone="no"?>
<svg
   style="font-style:normal;font-weight:normal;font-size:12px;font-family:Dialog;color-interpolation:auto;fill:#000000;fill-opacity:1;stroke:#000000;stroke-width:1;stroke-linecap:square;stroke-linejoin:miter;stroke-miterlimit:10;stroke-dasharray:none;stroke-dashoffset:0;stroke-opacity:1;color-rendering:auto;image-rendering:auto;shape-rendering:auto;text-rendering:auto"
   width="551.70837"
   height="552.3916"
   version="1.1"
   id="svg5"
   sodipodi:docname="triad.svg"
   inkscape:version="1.3.1 (91b66b0783, 2023-11-16)"
   xmlns:inkscape="http://www.inkscape.org/namespaces/inkscape"
   xmlns:sodipodi="http://sodipodi.sourceforge.net/DTD/sodipodi-0.dtd"
   xmlns="http://www.w3.org/2000/svg"
   xmlns:svg="http://www.w3.org/2000/svg">
  <sodipodi:namedview
     id="namedview5"
     pagecolor="#ffffff"
     bordercolor="#000000"
     borderopacity="0.25"
     inkscape:showpageshadow="2"
     inkscape:pageopacity="0.0"
     inkscape:pagecheckerboard="0"
     inkscape:deskcolor="#d1d1d1"
     inkscape:zoom="1.02625"
     inkscape:cx="276.73569"
     inkscape:cy="276.24848"
     inkscape:window-width="1920"
     inkscape:window-height="1017"
     inkscape:window-x="-8"
     inkscape:window-y="-8"
     inkscape:window-maximized="1"
     inkscape:current-layer="g4" />
  <!--Generated by the Batik Graphics2D SVG Generator-->
  <defs
     id="genericDefs" />
  <!-- Create a rotation animation -->
  <animateTransform
    attributeName="transform"
    attributeType="XML"
    type="rotate"
    from="0 0 0"
    to="360 0 0"
    dur="5s"
    repeatCount="indefinite"
  />
  <g
     id="g5"
     transform="translate(-124.14579,-123.8042)">
    <g
       style="fill:#ffffff;stroke:#000000;stroke-linecap:round;stroke-opacity:1"
       id="g1"
       transform="translate(0,0.97442144)">
      <circle
         r="200"
         style="stroke:#000000;stroke-opacity:1"
         cx="400"
         cy="400"
         id="circle1" />
    </g>
    <g
       style="stroke-linecap:round"
       id="g4">
      <g
         id="g8"
         transform="matrix(1.3663605,0,0,1.3663605,-146.54421,-146.20262)">
        <circle
           r="200"
           style="fill:none;stroke:#000000;stroke-width:3.77953;stroke-dasharray:none;stroke-opacity:1"
           cx="400"
           cy="400"
           id="circle2" />
        <path
           id="path2"
           style="color:#000000;color-interpolation:sRGB;fill:#000000;stroke:#000000;stroke-width:3.77953;stroke-linecap:butt;stroke-dasharray:none;stroke-opacity:1"
           d="m 400,199.5 a 0.5,0.5 0 0 0 -0.5,0.5 0.5,0.5 0 0 0 0.5,0.5 c 60.71556,1e-4 104.88809,57.56841 89.17383,116.21484 -15.7143,58.64648 -82.75272,86.41435 -135.33399,56.05664 a 0.5,0.5 0 0 0 -0.008,0 c -14.46076,-8.37559 -31.22906,-12.95344 -48.74414,-12.52343 -7.26293,0.17831 -14.65335,1.21642 -22.06055,3.20117 -59.25735,15.87793 -87.34006,83.67186 -56.66601,136.80078 a 0.5,0.5 0 0 0 0.68359,0.18359 0.5,0.5 0 0 0 0.1836,-0.68359 C 196.87065,447.16872 224.63858,380.13028 283.28516,364.41602 341.93169,348.70171 399.50008,392.87419 399.5,453.58984 a 0.5,0.5 0 0 0 0.0332,0.0781 c -0.0145,23.61727 8.82053,47.42795 27.30078,65.9082 43.37941,43.37941 116.13066,33.80277 146.80469,-19.32617 a 0.5,0.5 0 0 0 -0.18359,-0.68359 0.5,0.5 0 0 0 -0.6836,0.18359 c -30.35784,52.5813 -102.29823,62.0514 -145.23046,19.11914 -42.93226,-42.93226 -33.46216,-114.87262 19.11914,-145.23047 a 0.5,0.5 0 0 0 0.11328,-0.11328 c 20.43236,-11.79166 36.60919,-31.3315 43.36718,-56.5527 C 506.01859,257.71541 461.34792,199.5001 400,199.5 Z m 38.35938,178.33984 c -22.67577,16.22601 -35.77449,40.78045 -38.35352,66.46485 -2.70845,-27.68979 -17.34345,-51.2923 -38.22461,-66.37305 25.34403,11.44974 53.09668,10.48116 76.57813,-0.0918 z" />
        <path
           style="fill:#800000;stroke:#000000;stroke-width:3.77953;stroke-dasharray:none;stroke-opacity:1"
           d="m 380.99878,598.19471 c -62.33042,-7.3444 -114.22857,-38.91401 -147.52869,-89.7416 -7.90703,-12.06889 -12.41937,-21.61492 -15.36884,-32.51336 -3.18848,-11.78159 -3.16408,-32.82314 0.0519,-44.75777 4.30921,-15.99166 11.7378,-29.21589 22.91283,-40.78894 11.80911,-12.22971 24.69428,-20.09158 41.2353,-25.15966 7.72364,-2.36648 10.09263,-2.62951 24.15427,-2.68191 12.36238,-0.0461 17.00315,0.3229 22.4117,1.78187 32.96794,8.89323 57.77512,33.04634 66.72411,64.96485 1.24189,4.42946 2.57837,14.0553 3.44085,24.7822 0.85804,10.67173 2.20276,20.37553 3.43423,24.7822 9.06215,32.4279 34.99281,57.50385 68.17912,65.93186 11.20537,2.84572 34.61511,2.64097 45.79781,-0.40055 9.61103,-2.61406 23.71716,-9.12982 30.64553,-14.15548 2.65284,-1.92431 5.01012,-3.31196 5.23841,-3.08367 0.69783,0.69783 -11.14015,13.20771 -20.10413,21.24518 -27.40423,24.5718 -61.80588,41.12685 -99.58005,47.92076 -8.88977,1.59888 -43.363,2.8498 -51.64434,1.87402 z"
           id="path6" />
        <path
           style="fill:#008000;stroke:#000000;stroke-width:3.77953;stroke-dasharray:none;stroke-opacity:1"
           d="m 475.51766,543.78906 c -35.48057,-7.5324 -62.71031,-33.48492 -71.70423,-68.34095 -2.28267,-8.84652 -2.45785,-10.92581 -2.04648,-24.29098 0.49771,-16.17021 2.12038,-23.57824 7.90894,-36.10682 7.73393,-16.73907 18.59223,-28.56402 38.16332,-41.56078 24.06209,-15.97915 36.77228,-33.23883 43.35274,-58.87048 1.77109,-6.89858 2.22276,-11.31511 2.23,-21.80541 0.011,-15.94788 -2.18621,-26.08593 -8.57803,-39.5792 -5.17675,-10.92822 -8.63054,-16.05497 -16.44006,-24.40337 -8.16833,-8.73198 -16.01923,-14.58382 -26.91442,-20.06128 -5.0636,-2.54567 -8.26737,-4.6285 -7.11951,-4.6285 1.14787,0 7.91588,1.49422 15.04004,3.32049 55.76165,14.29443 102.28698,51.83076 128.31399,103.52288 23.5574,46.78727 27.61757,101.04458 11.3021,151.03346 -3.83686,11.75569 -13.95781,33.36932 -19.66452,41.9942 -5.03525,7.61005 -16.05239,19.06116 -23.34655,24.26617 -7.45671,5.32099 -19.95293,11.23631 -29.57163,13.99826 -9.43439,2.70901 -31.45565,3.52276 -40.9257,1.51231 z"
           id="path7" />
        <path
           style="fill:#000080;stroke:#000000;stroke-width:3.77953;stroke-dasharray:none;stroke-opacity:1"
           d="m 210.48106,460.65773 c -15.74938,-50.11125 -11.55857,-103.29068 11.79499,-149.67307 25.51824,-50.68167 71.84555,-88.57525 125.79601,-102.89526 19.67528,-5.22238 27.81888,-6.27824 48.51746,-6.29053 16.50361,-0.01 19.98727,0.26456 26.50278,2.08728 26.35283,7.37223 46.9671,24.39472 59.23528,48.91425 11.30545,22.59542 12.36247,49.81581 2.86524,73.78637 -11.28441,28.48132 -36.82306,49.81346 -67.15625,56.09485 -7.4139,1.53527 -11.7022,1.82189 -21.44705,1.43353 -15.9973,-0.63757 -24.42149,-2.93942 -41.41291,-11.31583 -22.28222,-10.98466 -31.74088,-13.27513 -51.56501,-12.48676 -15.63851,0.62191 -24.73445,2.87354 -38.08176,9.42686 -33.96834,16.6779 -53.88878,51.20624 -51.84907,89.87057 0.30606,5.8016 0.38317,10.54835 0.17135,10.54835 -0.21182,0 -1.7288,-4.27527 -3.37106,-9.50061 z"
           id="path8" />
      </g>
    </g>
  </g>
</svg>
