<?xml version="1.0" encoding="UTF-8" standalone="no"?>
<svg
   style="font-style:normal;font-weight:normal;font-size:12px;font-family:Dialog;color-interpolation:auto;fill:#000000;fill-opacity:1;stroke:#000000;stroke-width:1;stroke-linecap:square;stroke-linejoin:miter;stroke-miterlimit:10;stroke-dasharray:none;stroke-dashoffset:0;stroke-opacity:1;color-rendering:auto;image-rendering:auto;shape-rendering:auto;text-rendering:auto"
   width="664.35742"
   height="664.05237"
   version="1.1"
   id="svg34"
   sodipodi:docname="gankyil2_4.svg"
   inkscape:version="1.3.1 (91b66b0783, 2023-11-16)"
   xmlns:inkscape="http://www.inkscape.org/namespaces/inkscape"
   xmlns:sodipodi="http://sodipodi.sourceforge.net/DTD/sodipodi-0.dtd"
   xmlns="http://www.w3.org/2000/svg"
   xmlns:svg="http://www.w3.org/2000/svg">
  <sodipodi:namedview
     id="namedview34"
     pagecolor="#ffffff"
     bordercolor="#000000"
     borderopacity="0.25"
     inkscape:showpageshadow="2"
     inkscape:pageopacity="0.0"
     inkscape:pagecheckerboard="0"
     inkscape:deskcolor="#d1d1d1"
     inkscape:zoom="1.0975936"
     inkscape:cx="398.59927"
     inkscape:cy="358.51157"
     inkscape:window-width="1920"
     inkscape:window-height="1017"
     inkscape:window-x="-8"
     inkscape:window-y="-8"
     inkscape:window-maximized="1"
     inkscape:current-layer="g2"
     showgrid="false" />
  <!--Generated by the Batik Graphics2D SVG Generator-->
  <defs
     id="genericDefs" />
  <!-- Create a rotation animation -->
  <animateTransform
    attributeName="transform"
    attributeType="XML"
    type="rotate"
    from="360 0 0"
    to="0 0 0"
    dur="8s"
    repeatCount="indefinite"
  />
  <g
     inkscape:groupmode="layer"
     id="layer2"
     inkscape:label="guidelines"
     style="display:inline"
     transform="translate(-727.472,-210.00893)" />
  <g
     inkscape:groupmode="layer"
     id="layer3"
     inkscape:label="seed of life"
     transform="translate(-727.472,-210.00893)" />
  <g
     inkscape:groupmode="layer"
     id="layer1"
     inkscape:label="guide circles 1"
     style="display:inline"
     transform="translate(-727.472,-210.00893)">
    <ellipse
       style="display:none;fill:none;stroke:#000000;stroke-width:1.33333;stroke-dasharray:none"
       id="path11"
       cx="1117.5974"
       cy="541.76379"
       rx="213.88467"
       ry="216.27942" />
  </g>
  <g
     inkscape:groupmode="layer"
     id="layer4"
     inkscape:label="guide circles 2"
     transform="translate(-727.472,-210.00893)">
    <g
       id="g2">
      <path
         id="path159"
         style="fill:#ff8bfa;fill-opacity:1;stroke-width:1.33333"
         d="M 852.61914,282.80664 C 773.93746,345.81253 728.13867,441.17481 728.13867,542 c 1.2e-4,100.82418 46.76446,194.57498 125.44487,257.58083 l -0.0484,0.0207 c 25.67212,21.96105 55.19491,38.97011 87.07031,50.16406 l -0.002,-0.0605 c 14.26748,4.95989 29.65629,9.04395 44.51757,11.58008 l 0.12305,0.0293 c 12.38591,1.91239 24.88883,2.97022 37.42003,3.16602 4.8316,0.19047 9.6679,0.25364 14.5039,0.18945 12.0629,-0.25424 24.0958,-1.30733 36.0195,-3.15234 5.1435,-0.90076 10.2608,-1.94741 15.3457,-3.13867 11.9945,-2.36548 23.8167,-5.53341 35.3867,-9.48243 1.798,-0.77196 3.5879,-1.56303 5.3692,-2.37304 13.2596,-4.96993 26.1128,-10.96326 38.4433,-17.92578 14.4203,-8.32573 28.0493,-17.9524 40.7168,-28.75977 13.3136,-11.35836 25.5051,-23.96972 36.4063,-37.66016 32.5525,-41.41717 52.4369,-91.3626 57.2578,-143.82031 1.1654,-8.74543 1.9065,-17.54222 2.2207,-26.35937 -0.3548,-7.6042 -1.0272,-15.19025 -2.0156,-22.73828 -0.4148,-7.78512 -1.252,-15.54199 -2.5079,-23.23633 l -0.018,-0.0937 -0.053,-0.22852 c -0.2152,-0.9794 -0.4352,-1.95729 -0.664,-2.93359 -0.1009,-0.4313 -0.205,-0.8623 -0.3086,-1.29297 -0.8749,-3.62743 -1.8441,-7.23152 -2.9063,-10.80859 -3.9874,-13.36508 -9.2687,-26.31264 -15.7695,-38.66016 -5.0748,-9.24404 -10.824,-18.10446 -17.2012,-26.50977 -1.6537,-2.49425 -3.359,-4.95377 -5.1152,-7.37695 -15.963,-20.07288 -35.3933,-37.14713 -57.377,-50.41992 -1.4264,-0.85767 -2.8627,-1.69887 -4.3086,-2.52344 -1.4109,-0.805 -2.8309,-1.59412 -4.2597,-2.36719 -10.5935,-5.3503 -22.0529,-8.77217 -33.8458,-10.10547 -0.1784,-0.0129 -0.3586,-0.0252 -0.5371,-0.0371 -1.9559,-0.19057 -3.917,-0.32344 -5.8809,-0.39844 -1.6252,-0.12768 -3.2533,-0.21559 -4.8828,-0.26367 h -0.01 l -0.07,0.006 c -21.4019,0.20377 -42.1738,7.26878 -59.2617,20.15625 -1.4944,1.03149 -2.9605,2.10351 -4.3965,3.21484 -3.5188,3.00355 -6.8249,6.24768 -9.8945,9.70898 -1.0535,1.13614 -2.0805,2.29661 -3.0801,3.48047 -3.3839,4.04188 -6.4429,8.34502 -9.1484,12.86914 l -0.01,0.0117 c -0.1001,0.17158 -0.1997,0.34346 -0.2988,0.51563 l -0.021,0.0352 c -0.082,0.14368 -0.1644,0.28756 -0.2461,0.43164 v 0.002 l -0.02,0.0332 c -2.7222,4.81596 -5.04,9.84951 -6.9297,15.04883 -0.1987,0.57764 -0.392,1.15709 -0.5801,1.73828 -3.6797,10.52803 -5.5724,21.59747 -5.5996,32.75 v 0.16406 l -0.5176,0.002 v 0.002 l 0.5176,-0.002 c 0.036,17.31392 4.5665,34.32196 13.1484,49.35937 v 0.002 c 2.2232,10e-4 4.4459,0.077 6.6641,0.22657 15.1895,1.02114 29.9453,5.49687 43.1426,13.08593 v 0.002 c 0.7583,0.43603 2.0856,1.2326 3.8027,2.37109 -1.25,-0.81166 -2.4875,-1.63763 -3.8027,-2.37109 4.5737,2.92382 8.5114,5.75336 12.0078,8.58203 0.1998,0.16389 0.4129,0.35884 0.6152,0.52734 0.49,0.40269 0.9313,0.80774 1.4043,1.21094 -0.074,-0.0675 -0.1505,-0.13191 -0.2246,-0.19922 1.4781,1.26816 2.8973,2.49574 4.4531,4 1.9879,1.89918 3.7772,3.90223 5.5411,5.88281 0.549,0.62405 1.0997,1.09302 1.6445,1.7461 0.4111,0.45588 0.818,0.91553 1.2207,1.3789 3.6529,3.82376 6.0628,6.58689 10.0879,13.55664 h -0.01 c 3e-4,4.6e-4 -4e-4,0.002 0,0.002 0.01,0.01 0.016,0.0193 0.023,0.0293 -0.01,-0.0105 -0.014,-0.0188 -0.022,-0.0293 v 0 l 0.018,0.0293 v 0.004 c 5e-4,7.9e-4 0,0.001 0,0.002 l 0.2402,0.41602 0.01,0.0117 c 1.4487,2.54042 2.7853,5.1432 4.0059,7.80078 1.2434,3.16868 2.3243,6.39882 3.2383,9.67773 0.4483,1.25638 0.8717,2.52162 1.2695,3.79492 1.4979,5.11279 2.5846,10.33712 3.25,15.62305 0.2615,1.90316 0.4678,3.81346 0.6191,5.72852 0.3287,2.29468 0.5776,4.60012 0.7461,6.91211 -0.1265,3.04111 -0.3916,6.07488 -0.7949,9.09179 -0.08,1.14813 -0.1808,2.29479 -0.3008,3.43946 -0.7093,5.51939 -1.878,10.96996 -3.4941,16.29492 -0.2873,1.15645 -0.5953,2.30768 -0.9239,3.45312 -2.0472,6.14836 -4.6872,12.08317 -7.8828,17.72071 l -0.066,0.10351 c -0.054,0.12055 -0.1078,0.24099 -0.1621,0.36133 -0.806,1.26009 -1.6401,2.50194 -2.5019,3.72461 -1.0058,1.64601 -2.0589,3.26257 -3.1582,4.84766 -0.1356,0.15472 -0.2717,0.30901 -0.4082,0.46289 -0.4887,0.7495 -0.9875,1.4924 -1.4961,2.22851 -6.7228,8.67289 -14.8272,16.18014 -23.9883,22.22071 -1.6517,1.08876 -3.3354,2.12829 -5.0488,3.11718 v 0.004 c -1.7108,0.98752 -3.4505,1.92412 -5.2168,2.80859 -22.0627,11.83361 -46.0198,19.72986 -70.795,23.33399 -2.9746,0.30948 -5.955,0.55693 -8.9394,0.74218 -7.555,1.03174 -15.1595,1.66153 -22.7813,1.88672 -20.32988,0.64286 -40.02706,-2.14487 -65.62885,-10.26367 -7.02778,-2.67383 -13.91314,-5.70712 -20.62109,-9.10351 -0.17652,-0.0818 -0.35295,-0.16388 -0.5293,-0.2461 -7.13007,-2.70824 -14.11127,-5.79332 -20.91406,-9.24219 -55.30602,-32.17734 -93.17913,-77.46509 -118.58594,-136.52343 -6.04264,-15.56218 -10.66198,-31.6449 -13.80078,-48.04883 -3.27687,-17.11851 -4.92687,-34.5112 -4.92773,-51.94336 0.42115,-14.35867 1.96101,-28.66219 4.60547,-42.7793 0.18652,-1.92923 0.39356,-3.85642 0.62109,-5.78125 2.37416,-11.99148 5.54134,-23.81067 9.48047,-35.3789 1.51138,-5.00939 3.16636,-9.97434 4.96289,-14.88868 4.36977,-11.23792 9.47064,-22.17497 15.26953,-32.74023 0.83504,-1.84474 1.69056,-3.68014 2.56641,-5.50586 1.58658,-2.35655 3.20983,-4.68822 4.86914,-6.99414 6.43856,-10.74647 13.60112,-21.03807 21.4375,-30.80273 l 0.10742,-0.11329 c 9.58095,-12.15973 20.16815,-23.48395 31.64844,-33.85156 z m 294.20316,308.72852 c -6e-4,-7.3e-4 0,-10e-4 0,-0.002 h -0.041 z m 0,-0.002 v 0 c -4.3497,-6.25608 -8.4244,-11.60517 -12.9453,-16.68164 -1.8501,-2.10255 -3.7067,-4.10924 -5.5411,-5.88281 -1.3331,-1.27371 -2.7528,-2.54298 -4.2285,-3.80078 8.4555,7.72701 15.5941,17.03419 22.7129,26.36523 z"
         sodipodi:nodetypes="cscccccccccccccscccccccscccccccccccscccccccccccccccccccccccsccccccccccccccccccccccccccccccccccccccccccccccccccccccccccccccccccccccccccc"
         inkscape:transform-center-x="43.732311"
         inkscape:transform-center-y="32.066779" />
      <path
         id="path3"
         style="fill:#5252ff;fill-opacity:1;stroke-width:1.33333"
         d="M 1387.8375,491.55221 C 1372.6136,391.90893 1312.9268,304.56487 1225.6097,254.15228 1138.2933,203.74029 1033.7206,197.364 939.81568,234.00031 l 0.006,-0.0523 c -31.85489,11.25218 -61.34656,28.31514 -86.97851,50.32307 l 0.0534,0.0285 c -11.42913,9.87605 -22.66044,21.16112 -32.28743,32.7633 l -0.0869,0.0919 c -7.84913,9.77032 -15.0167,20.06925 -21.45187,30.82369 -2.58075,4.08905 -5.05361,8.24582 -7.41602,12.46602 -5.81127,10.57389 -10.91572,21.52124 -15.27974,32.76997 -1.79167,4.90478 -3.4439,9.85982 -4.95468,14.8591 -3.94869,11.57028 -7.11628,23.39257 -9.48133,35.387 -0.23046,1.94309 -0.44033,3.88872 -0.62949,5.83638 -2.32571,13.96811 -3.56193,28.09598 -3.69747,42.25576 1.5e-4,16.65121 1.52259,33.26761 4.5483,49.64167 3.17982,17.2091 8.00583,34.07293 14.4115,50.35886 19.59207,48.89988 52.90388,91.09299 95.92314,121.49687 6.99107,5.38198 14.23876,10.42218 21.71754,15.10286 6.76283,3.49484 13.66874,6.70555 20.69973,9.62358 6.94951,3.53334 14.08575,6.68674 21.3772,9.44626 l 0.0901,0.0313 0.22441,0.0684 c 0.95578,0.30333 1.91266,0.60175 2.87256,0.89175 0.42397,0.12827 0.84928,0.25361 1.27405,0.37923 3.57889,1.05603 7.18473,2.01872 10.81366,2.88736 13.5682,3.22936 27.42176,5.1294 41.36543,5.6733 10.54304,0.22711 21.09094,-0.32163 31.55874,-1.64179 2.9869,-0.18503 5.9696,-0.4321 8.9462,-0.74142 25.3652,-3.78793 49.867,-12.07793 72.3535,-24.47998 1.4559,-0.80647 2.9026,-1.62974 4.3396,-2.46964 1.4026,-0.81937 2.796,-1.65457 4.1799,-2.50541 9.9303,-6.49909 18.6234,-14.71229 25.6745,-24.25859 0.1004,-0.14805 0.2012,-0.29796 0.3007,-0.44659 1.143,-1.59858 2.2386,-3.2305 3.2855,-4.89379 0.9232,-1.34363 1.8134,-2.70965 2.6698,-4.09679 v -0.009 l 0.03,-0.0636 c 10.5244,-18.63647 14.7919,-40.15797 12.175,-61.40026 -0.1461,-1.80993 -0.3415,-3.61562 -0.5859,-5.4149 -0.8417,-4.54915 -1.9982,-9.03438 -3.461,-13.42338 -0.4571,-1.48043 -0.9486,-2.95007 -1.4741,-4.40768 -1.8084,-4.95148 -4.0055,-9.75222 -6.5708,-14.35731 l -0.01,-0.0145 c -0.099,-0.17247 -0.1976,-0.34467 -0.2972,-0.51658 l -0.02,-0.0358 c -0.083,-0.14285 -0.1668,-0.28615 -0.2507,-0.42894 v -10e-4 l -0.019,-0.0339 c -2.8096,-4.76548 -6.0099,-9.28953 -9.5678,-13.52572 -0.4009,-0.46089 -0.8061,-0.91802 -1.2154,-1.37152 -7.2777,-8.45073 -15.9177,-15.62457 -25.5625,-21.22439 l -0.1421,-0.082 0.2571,-0.44926 v -10e-4 l -0.2571,0.44926 c -15.0123,-8.62579 -32.007,-13.20628 -49.3207,-13.29284 v -10e-4 c -1.1125,1.92485 -2.2896,3.81176 -3.5283,5.658 -8.4791,12.64392 -19.7331,23.18495 -32.904,30.81962 v -10e-4 c -0.7567,0.43869 -2.1102,1.18988 -3.9547,2.10769 1.3279,-0.6767 2.6619,-1.33543 3.9547,-2.10769 -4.8189,2.49903 -9.2382,4.49441 -13.4361,6.10804 -0.2418,0.0911 -0.5172,0.17816 -0.7643,0.26911 -0.5937,0.22301 -1.1652,0.40266 -1.7509,0.61069 0.096,-0.0303 0.1895,-0.0644 0.2849,-0.0949 -1.8373,0.64599 -3.6101,1.26127 -5.6907,1.8565 -2.63869,0.77198 -5.26803,1.32004 -7.86521,1.85733 -0.81495,0.16342 -1.49644,0.40586 -2.33442,0.55113 -0.60035,0.12808 -1.20187,0.25064 -1.80451,0.3677 -5.13793,1.25163 -8.73582,1.9571 -16.78435,1.95806 l 0.005,-0.009 c -5.5e-4,3e-5 -0.002,-10e-4 -0.002,-10e-4 -0.0137,0.004 -0.0247,0.004 -0.0369,0.005 0.0141,-0.003 0.0233,-0.003 0.0364,-0.004 v 0 l -0.0344,9.4e-4 -0.003,-0.002 c -9.3e-4,3e-5 -8.7e-4,-5e-4 -0.002,-0.001 l -0.48039,1e-5 -0.0151,0.003 c -2.92442,-0.0156 -5.84679,-0.15946 -8.75862,-0.43118 -3.36586,-0.50753 -6.70369,-1.18651 -10.00031,-2.03442 -1.31221,-0.23995 -2.61964,-0.50589 -3.92125,-0.79804 -5.17675,-1.25917 -10.24451,-2.93023 -15.15496,-4.99694 -1.77893,-0.72512 -3.53645,-1.5016 -5.27059,-2.32811 -2.1516,-0.86267 -4.27262,-1.79984 -6.35911,-2.80991 -2.57043,-1.63011 -5.0652,-3.37657 -7.47627,-5.2343 -0.95431,-0.64334 -1.89695,-1.30397 -2.82826,-1.98023 -4.42529,-3.37396 -8.56127,-7.11137 -12.36477,-11.17344 -0.85786,-0.82703 -1.70086,-1.66938 -2.52854,-2.52668 -4.30103,-4.84711 -8.12073,-10.10082 -11.40518,-15.68706 l -0.0566,-0.10891 c -0.0774,-0.10704 -0.1548,-0.21385 -0.23187,-0.32105 -0.68827,-1.32806 -1.34669,-2.67134 -1.97465,-4.02901 -0.92259,-1.69406 -1.79602,-3.41435 -2.6191,-5.15891 -0.0662,-0.1948 -0.13176,-0.38981 -0.19677,-0.58496 -0.40474,-0.79798 -0.79871,-1.6014 -1.1819,-2.40992 -4.14954,-10.15856 -6.59881,-20.9308 -7.24955,-31.88483 -0.11704,-1.97479 -0.17545,-3.95268 -0.17516,-5.93098 l -0.003,-0.002 c 1.8e-4,-1.97535 0.0589,-3.95028 0.17609,-5.92217 0.78314,-25.02367 5.92334,-49.71925 15.18967,-72.97727 1.21928,-2.73082 2.49518,-5.43564 3.82695,-8.11283 2.88399,-7.0587 6.14083,-13.95928 9.75671,-20.67255 9.6082,-17.92762 21.87104,-33.59201 41.70302,-51.70442 5.82949,-4.74932 11.89908,-9.19557 18.19442,-13.30663 0.1591,-0.11197 0.3184,-0.22372 0.47777,-0.33534 5.91044,-4.8207 12.0728,-9.32405 18.46101,-13.49101 55.5194,-31.80775 113.6763,-41.96295 177.5257,-34.43672 16.4986,2.54801 32.7363,6.58891 48.5119,12.07259 16.4635,5.7214 32.351,12.98881 47.4481,21.70414 12.2244,7.54406 23.8417,16.02938 34.7453,25.3781 1.5775,1.12615 3.1429,2.26905 4.6961,3.42851 9.1979,8.05182 17.85,16.70428 25.8988,25.89978 3.5826,3.81359 7.0549,7.72932 10.4125,11.74233 7.5475,9.40329 14.4688,19.2893 20.7192,29.59391 1.18,1.64554 2.3418,3.30414 3.485,4.97551 1.2475,2.55229 2.4552,5.1239 3.6225,7.71387 6.0874,10.94919 11.4189,22.29795 15.9572,33.96678 l 0.044,0.14967 c 5.7402,14.37722 10.2536,29.20811 13.4921,44.33414 z M 973.36914,591.97536 c 9.3e-4,-1.6e-4 8.7e-4,5e-4 0.002,10e-4 l 0.0205,-0.0355 z m 0.002,10e-4 v 0 c 7.59278,-0.63891 14.26257,-1.49316 20.91938,-2.87014 2.74591,-0.55096 5.41205,-1.15548 7.86528,-1.85733 1.7696,-0.51764 3.5786,-1.11251 5.4058,-1.7616 -10.91959,3.45917 -22.54914,4.98779 -34.18946,6.48733 z"
         sodipodi:nodetypes="cscccccccccccccscccccccscccccccccccscccccccccccccccccccccccsccccccccccccccccccccccccccccccccccccccccccccccccccccccccccccccccccccccccccc"
         inkscape:transform-center-x="-12.755924"
         inkscape:transform-center-y="-57.744236" />
      <path
         id="path4"
         style="fill:#ff7812;fill-opacity:1;stroke-width:1.33333"
         d="m 939.44931,850.69212 c 93.90559,36.63735 199.39119,28.6191 286.70829,-21.79343 87.3162,-50.41223 145.1246,-137.7867 160.3491,-237.4289 l 0.042,0.0313 c 6.1828,-33.21324 6.1517,-67.28525 -0.092,-100.48714 l -0.051,0.032 c -2.8383,-14.83595 -6.9958,-30.20508 -12.2301,-44.34339 l -0.036,-0.12121 c -4.5367,-11.6827 -9.8721,-23.03946 -15.9681,-33.9897 -2.2509,-4.27952 -4.6143,-8.49947 -7.0879,-12.65548 -6.2516,-10.31965 -13.1801,-20.21391 -20.7398,-29.61762 -3.3518,-4.00403 -6.8169,-7.91242 -10.391,-11.72043 -8.0458,-9.20481 -16.7004,-17.85917 -25.9053,-25.90458 -1.5676,-1.17113 -3.1476,-2.32569 -4.7398,-3.46334 -10.9338,-8.99818 -22.5508,-17.13271 -34.7458,-24.32998 -14.4204,-8.32548 -29.5719,-15.31521 -45.2651,-20.88189 -16.4934,-5.85075 -33.5109,-10.10322 -50.8178,-12.69871 -52.1446,-7.48271 -105.3408,0.26961 -153.1809,22.32344 -8.15649,3.36346 -16.14528,7.12004 -23.93826,11.25651 -6.40803,4.10937 -12.64154,8.4847 -18.68413,13.1147 -6.53471,4.25179 -12.83376,8.85525 -18.8693,13.79007 l -0.0722,0.0624 -0.17144,0.16015 c -0.74059,0.67606 -1.47747,1.35553 -2.20856,2.04183 -0.32307,0.30304 -0.64428,0.60869 -0.96545,0.91375 -2.70399,2.57139 -5.34063,5.21279 -7.90736,7.92122 -9.58081,10.13573 -18.15307,21.18324 -25.59593,32.98686 -5.46821,9.01699 -10.26694,18.42611 -14.35754,28.15157 -1.33321,2.67925 -2.61059,5.38587 -3.83101,8.11835 -9.40216,23.86087 -14.47371,49.22505 -14.97647,74.89995 -0.0295,1.66409 -0.0399,3.3286 -0.031,4.99303 0.008,1.62437 0.0349,3.24869 0.0798,4.8726 0.66323,11.84944 3.42952,23.48449 8.17131,34.36407 0.078,0.16097 0.15744,0.32322 0.2364,0.48371 0.81291,1.78915 1.6784,3.55393 2.5954,5.29222 0.70202,1.47133 1.43993,2.92527 2.21302,4.36051 l 0.008,0.005 0.0401,0.0578 c 10.87745,18.43263 27.38187,32.88914 47.08668,41.24399 1.6405,0.77844 3.30197,1.51206 4.98239,2.20004 4.36053,1.54564 8.82311,2.7867 13.35549,3.71438 1.51064,0.34435 3.02914,0.65352 4.55421,0.92723 5.19231,0.90962 10.44842,1.40725 15.7192,1.48818 l 0.0176,-10e-4 c 0.19886,4.9e-4 0.39729,10e-4 0.59597,9e-4 l 0.041,5.8e-4 c 0.16521,-4.5e-4 0.33122,-10e-4 0.49682,-0.003 l 8.7e-4,5e-4 0.0389,5e-4 c 5.53183,-0.0504 11.04992,-0.55997 16.49752,-1.5231 0.59959,-0.11675 1.19807,-0.2391 1.79547,-0.36681 10.9574,-2.07731 21.4901,-5.97285 31.1621,-11.52558 l 0.1421,-0.0821 0.2605,0.44728 9e-4,5e-4 -0.2605,-0.44728 c 14.9763,-8.68814 27.4404,-21.11574 36.1722,-36.06656 l 9e-4,5e-4 c -1.1107,-1.92588 -2.1563,-3.88873 -3.1358,-5.8846 -6.7104,-13.66507 -10.2122,-28.68184 -10.2386,-43.90551 l 9e-4,5e-4 c 0,-0.87466 0.025,-2.42242 0.152,-4.47871 -0.078,1.48834 -0.1744,2.97299 -0.152,4.47871 0.2452,-5.4228 0.7268,-10.24772 1.4283,-14.69002 0.042,-0.25496 0.1043,-0.53699 0.1491,-0.79646 0.1037,-0.62566 0.2339,-1.21042 0.3466,-1.82167 -0.022,0.0983 -0.039,0.19631 -0.06,0.29418 0.3592,-1.91414 0.7128,-3.75707 1.2376,-5.85654 0.6508,-2.67116 1.4908,-5.22227 2.3241,-7.74014 0.266,-0.78747 0.3967,-1.49888 0.6899,-2.29723 0.1893,-0.58396 0.3839,-1.16617 0.5838,-1.7466 1.4851,-5.07539 2.6731,-8.54399 6.6965,-15.5147 l 0.01,0.009 c 2e-4,-4.9e-4 0,-10e-4 0,-10e-4 0,-0.0139 0.01,-0.0234 0.014,-0.0345 0,0.0137 -0.01,0.0217 -0.015,0.0335 v 0 l 0.016,-0.0303 v -0.002 c 5e-4,-8.2e-4 9e-4,-5e-4 0,-10e-4 l 0.2402,-0.41603 0.01,-0.0146 c 1.4757,-2.52482 3.0614,-4.98374 4.7527,-7.3696 2.1224,-2.66115 4.3794,-5.21231 6.762,-7.64331 0.8639,-1.01643 1.7479,-2.01573 2.6517,-2.99688 3.6789,-3.85361 7.6599,-7.40689 11.905,-10.62611 1.5174,-1.17804 3.0686,-2.31186 4.6515,-3.40041 1.8229,-1.43201 3.695,-2.80028 5.613,-4.1022 2.6969,-1.411 5.4568,-2.69831 8.2712,-3.85749 1.0343,-0.50478 2.0777,-0.99082 3.129,-1.45923 5.1346,-2.14543 10.4393,-3.85859 15.8589,-5.12148 1.1452,-0.32942 2.2962,-0.6383 3.4524,-0.92644 6.3483,-1.30125 12.808,-1.98235 19.288,-2.03365 l 0.1226,0.005 c 0.1314,-0.0135 0.2626,-0.0271 0.394,-0.0403 1.4943,0.068 2.9868,0.1694 4.4766,0.30441 1.9284,0.048 3.8549,0.15177 5.7773,0.31124 0.2018,0.0401 0.4034,0.0808 0.6049,0.12208 0.8935,0.0485 1.7862,0.10899 2.678,0.1814 10.8724,1.48567 21.426,4.75066 31.2379,9.66412 1.7687,0.88604 3.5108,1.8244 5.2239,2.8138 v -0.002 c 1.7106,0.98783 3.3916,2.02615 5.0407,3.11358 21.2795,13.19006 40.0964,29.98939 55.6053,49.64328 1.7553,2.42134 3.4598,4.87871 5.1125,7.37065 4.671,6.02696 9.0186,12.29776 13.0246,18.78583 10.7216,17.28476 18.156,35.73689 23.9258,61.96809 1.1983,7.42315 2.014,14.90269 2.4267,22.41014 0.017,0.19377 0.034,0.38761 0.052,0.58143 1.2196,7.52895 2.0384,15.11738 2.453,22.73321 -0.2133,63.98509 -20.4971,119.42804 -58.9397,170.96013 -10.456,13.0142 -22.0744,25.05601 -34.7112,35.97624 -13.1866,11.39711 -27.4241,21.52239 -42.5203,30.23919 -12.6456,6.81461 -25.8027,12.63283 -39.3508,17.40126 -1.764,0.80308 -3.5365,1.58731 -5.3172,2.35269 -11.572,3.93971 -23.3913,7.10642 -35.3793,9.47913 -5.0939,1.19583 -10.2212,2.24506 -15.3754,3.14632 -11.9172,1.83469 -23.9394,2.8857 -35.9887,3.1464 -2.015,0.19914 -4.0323,0.37599 -6.0514,0.53035 -2.8341,-0.19578 -5.665,-0.43569 -8.4916,-0.71976 -12.526,-0.20275 -25.02009,-1.25992 -37.39474,-3.16405 l -0.15162,-0.0367 C 969.4895,858.6057 954.38887,855.09897 939.6701,850.34058 Z M 1059.7145,441.54041 c -3e-4,8.9e-4 -9e-4,5.1e-4 0,10e-4 l 0.02,0.0355 z m 0,10e-4 v 0 c -3.243,6.895 -5.8381,13.09833 -7.974,19.55179 -0.8959,2.65351 -1.7054,5.26471 -2.3242,7.7402 -0.4365,1.79134 -0.8258,3.65541 -1.1773,5.56236 2.4641,-11.18623 6.955,-22.02203 11.4765,-32.85261 z"
         sodipodi:nodetypes="cscccccccccccccscccccccscccccccccccscccccccccccccccccccccccsccccccccccccccccccccccccccccccccccccccccccccccccccccccccccccccccccccccccccc"
         inkscape:transform-center-x="-72.455915"
         inkscape:transform-center-y="29.288414" />
    </g>
  </g>
</svg>
