<?xml version="1.0" encoding="UTF-8" standalone="no"?>
<!-- Created with Inkscape (http://www.inkscape.org/) -->

<svg
   width="425pt"
   height="130pt"
   viewBox="0 0 149.9307 45.861104"
   version="1.1"
   id="svg1"
   inkscape:version="1.3.1 (91b66b0783, 2023-11-16)"
   sodipodi:docname="perus1.svg"
   xmlns:inkscape="http://www.inkscape.org/namespaces/inkscape"
   xmlns:sodipodi="http://sodipodi.sourceforge.net/DTD/sodipodi-0.dtd"
   xmlns:xlink="http://www.w3.org/1999/xlink"
   xmlns="http://www.w3.org/2000/svg"
   xmlns:svg="http://www.w3.org/2000/svg">
  <sodipodi:namedview
     id="namedview1"
     pagecolor="#ffffff"
     bordercolor="#000000"
     borderopacity="0.25"
     inkscape:showpageshadow="2"
     inkscape:pageopacity="0.0"
     inkscape:pagecheckerboard="0"
     inkscape:deskcolor="#d1d1d1"
     inkscape:document-units="mm"
     showgrid="true"
     inkscape:zoom="0.91112915"
     inkscape:cx="132.80225"
     inkscape:cy="7.1340051"
     inkscape:window-width="1920"
     inkscape:window-height="1017"
     inkscape:window-x="-8"
     inkscape:window-y="-8"
     inkscape:window-maximized="1"
     inkscape:current-layer="layer2">
    <inkscape:grid
       visible="true"
       id="grid1"
       units="mm"
       originx="0"
       originy="0"
       spacingx="0.99999995"
       spacingy="1"
       empcolor="#0099e5"
       empopacity="0.30196078"
       color="#0099e5"
       opacity="0.14901961"
       empspacing="10"
       dotted="false"
       gridanglex="30"
       gridanglez="30" />
  </sodipodi:namedview>
  <defs
     id="defs1">
    <inkscape:path-effect
       effect="tiling"
       id="path-effect2"
       is_visible="true"
       lpeversion="1"
       unit="px"
       seed="1;1"
       lpesatellites=""
       num_rows="1"
       num_cols="9"
       gapx="0"
       gapy="0"
       offset="0"
       offset_type="false"
       scale="0"
       rotate="0"
       mirrorrowsx="false"
       mirrorrowsy="false"
       mirrorcolsx="false"
       mirrorcolsy="false"
       mirrortrans="false"
       shrink_interp="false"
       split_items="false"
       link_styles="false"
       interpolate_scalex="false"
       interpolate_scaley="true"
       interpolate_rotatex="false"
       interpolate_rotatey="true"
       random_scale="false"
       random_rotate="false"
       random_gap_y="false"
       random_gap_x="false"
       transformorigin="" />
  </defs>
  <g
     inkscape:groupmode="layer"
     id="layer2"
     inkscape:label="motion path"
     style="display:none">
    <path
       style="fill:none;stroke:#000000;stroke-width:4.31963;stroke-linecap:butt"
       d="M 149.93069,20.000003 0,20.000005"
       id="mp" />
  </g>
  <g
     inkscape:label="Layer 1"
     inkscape:groupmode="layer"
     id="layer1"
     style="display:inline">
    <g
       id="g8"
       transform="translate(8.8342435,-18.11246)"
       style="display:inline">
      <animateMotion
         repeatCount="indefinite"
         dur="6s">
        <mpath
           xlink:href="#mp" />
      </animateMotion>
      <g
         id="g2"
         inkscape:path-effect="#path-effect2"
         transform="translate(-167.36434)">
        <path
           style="fill:none;stroke:#000000;stroke-width:3.52777;stroke-linecap:square"
           d="M -4.2563763e-7,40.120795 V 10.120792 H 9.9999988 V 20.120793 H 19.999998 V 10.120792 h 10 V 0.12079286 H -4.2563763e-7 M 49.999997,40.120795 V 10.120792 h 9.999999 v 10.000001 h 9.999999 V 10.120792 h 10 V 0.12079286 H 49.999997 M 99.999994,40.120795 V 10.120792 h 9.999996 v 10.000001 h 10 V 10.120792 h 10 V 0.12079286 H 99.999994 M 149.99999,40.120795 V 10.120792 h 10 v 10.000001 h 10 V 10.120792 h 10 V 0.12079286 h -30 m 50,40.00000214 V 10.120792 h 10 v 10.000001 h 10 V 10.120792 h 10 V 0.12079286 h -30 m 50,40.00000214 V 10.120792 h 10 v 10.000001 h 10 V 10.120792 h 10 V 0.12079286 h -30 M 299.99998,40.120795 V 10.120792 h 10 v 10.000001 h 10 V 10.120792 h 10 V 0.12079286 h -30 m 50,40.00000214 V 10.120792 h 10 v 10.000001 h 10 V 10.120792 h 10 V 0.12079286 h -30 m 50,40.00000214 V 10.120792 h 10 v 10.000001 h 10 V 10.120792 h 10 V 0.12079286 h -30"
           id="path1"
           sodipodi:nodetypes="ccccccccc"
           inkscape:original-d="M -4.2563763e-7,40.120795 V 10.120792 H 9.9999988 V 20.120793 H 19.999998 V 10.120792 h 10 V 0.12079286 H -4.2563763e-7" />
        <path
           style="fill:none;stroke:#000000;stroke-width:3.52777;stroke-linecap:square"
           d="M 49.999997,40.120795 H 9.9999988 V 30.120794 H 19.999998 V 20.120793 l 10,1e-6 v 10.000001 h 9.999999 V 0.12079286 h 10 M 99.999994,40.120795 H 59.999996 V 30.120794 h 9.999999 V 20.120793 l 10,1e-6 v 10.000001 h 9.999999 V 0.12079286 h 10 M 149.99999,40.120795 h -40 V 30.120794 h 10 V 20.120793 l 10,1e-6 v 10.000001 h 10 V 0.12079286 h 10 m 50,40.00000214 h -40 V 30.120794 h 10 V 20.120793 l 10,1e-6 v 10.000001 h 10 V 0.12079286 h 10 m 50,40.00000214 h -40 V 30.120794 h 10 V 20.120793 l 10,1e-6 v 10.000001 h 10 V 0.12079286 h 10 M 299.99998,40.120795 H 259.99999 V 30.120794 h 10 V 20.120793 l 10,1e-6 v 10.000001 h 9.99999 V 0.12079286 h 10 m 50,40.00000214 h -40 V 30.120794 h 10 V 20.120793 l 10,1e-6 v 10.000001 h 10 V 0.12079286 h 10 m 50,40.00000214 h -40 V 30.120794 h 10 V 20.120793 l 10,1e-6 v 10.000001 h 10 V 0.12079286 h 10 m 50,40.00000214 h -40 V 30.120794 h 10 V 20.120793 l 10,1e-6 v 10.000001 h 10 V 0.12079286 h 10"
           id="path2"
           sodipodi:nodetypes="cccccccccc"
           inkscape:original-d="M 49.999997,40.120795 H 9.9999988 V 30.120794 H 19.999998 V 20.120793 l 10,1e-6 v 10.000001 h 9.999999 V 0.12079286 h 10" />
      </g>
    </g>
  </g>
</svg>
